<?xml version="1.0" encoding="UTF-8"?>
<svg id="Ebene_2" data-name="Ebene 2" xmlns="http://www.w3.org/2000/svg" viewBox="0 0 218.98 808.97">
  <defs>
    <style>
      .cls-1 {
        fill: none;
        stroke: #e00b19;
        stroke-miterlimit: 10;
        stroke-width: 4px;
      }
    </style>
  </defs>
  <path class="cls-1" d="M31.03,1.54c10.21,8.47,24.14,21.28,38.3,38.89,15.39,19.15,31.83,39.6,40.43,71.28,3.03,11.19,11.26,43.16,0,81.91-5.36,18.45-11.55,43.09-34.04,59.57-6.35,4.66-32.48,23.81-54.26,11.7C4.27,255.35-1.91,230.93,4.44,211.71c5.67-17.17,21.91-31.9,38.3-31.91,27.34-.03,49.88,40.88,52.13,74.47,1.2,17.95-6.65,37.86-22.34,77.66-17.13,43.46-24.95,51.63-25.53,74.47-.31,12.09-1.11,43.43,20.21,58.51,21.38,15.12,53.62,5.86,72.34-9.57,3.98-3.28,27.72-23.63,24.47-53.19-2.88-26.24-26.14-51.7-45.74-48.94-16.73,2.36-26.14,24.62-31.91,38.3-10.23,24.23-9.8,45.88-9.57,53.19,2.79,91.59,10.64,125.53,10.64,125.53,14.91,64.48,32.41,144.16,54.26,238.3"/>
</svg>