<?xml version="1.0" encoding="UTF-8"?>
<svg id="Layer_1" data-name="Layer 1" xmlns="http://www.w3.org/2000/svg" viewBox="0 0 645.99 457.48">
  <path d="m49.86,0h546.26c13.72,0,26.19,5.58,35.21,14.63,9.04,9.01,14.65,21.49,14.65,35.21v357.79c0,13.72-5.61,26.19-14.65,35.21-9.07,9.04-21.52,14.66-35.21,14.66H49.86c-13.69,0-26.16-5.61-35.21-14.66-9.04-9.01-14.65-21.49-14.65-35.21V49.83c0-13.72,5.61-26.19,14.63-35.21C23.67,5.58,36.14,0,49.86,0h0Zm-29.85,408.67l134.31-127.87c13.58-12.93,25.77-24.69,36.96-35.49,6.04-5.81,11.79-11.37,17.21-16.58-5.44-5.22-11.14-10.74-17.12-16.5-11.23-10.83-23.44-22.62-37.05-35.57L20.01,48.78v359.89Zm205.79-190.97l3.97,3.8c44.56,42.52,69.93,63.78,93.2,63.78s48.64-21.26,93.2-63.78l.85-.79,2.49-2.38.2-.2c6.61-6.32,13.61-13.07,21.09-20.3,11.34-10.94,23.7-22.88,37.08-35.6L617.61,29.2l-.42-.43c-5.41-5.41-12.87-8.79-21.06-8.79H49.86c-8.19,0-15.68,3.37-21.09,8.79l-.43.43,139.72,133.03c13.41,12.73,25.77,24.69,37.13,35.63,7.29,7.03,14.14,13.66,20.61,19.84h0Zm211.69,11.03c5.41,5.22,11.17,10.77,17.21,16.61,11.2,10.77,23.39,22.54,36.94,35.46l134.3,127.87.03-1.05V49.83l-.03-1.05-134.3,127.87c-13.58,12.95-25.79,24.75-36.99,35.55-5.98,5.78-11.71,11.28-17.15,16.53h0Zm180.14,199.56l-139.75-133.03c-13.35-12.73-25.71-24.63-37.02-35.55l-17.83-17.21-2.07,1.96-1.84,1.73-.2.17-2.01,1.9-.23.23-1.76,1.62c-39.57,36.82-64.86,55.22-91.96,55.22s-49.83-16.61-86.12-49.83l-.43-.37-1.47-1.39-.85-.79-1.11-.99-1.96-1.84-1.76-1.62-.26-.23-2.01-1.9-.17-.17-1.84-1.73-.65-.6-1.42-1.36-17.86,17.21c-11.31,10.91-23.64,22.82-37.02,35.55L28.38,428.26l.4.43c5.38,5.44,12.87,8.79,21.09,8.79h546.26c8.22,0,15.68-3.34,21.06-8.73l.45-.45Z"/>
</svg>