<?xml version="1.0" encoding="UTF-8"?>
<svg id="Layer_1" data-name="Layer 1" xmlns="http://www.w3.org/2000/svg" viewBox="0 0 3521.14 3521.14">
  <defs>
    <style>
      .cls-1 {
        fill: #fff;
      }
    </style>
  </defs>
  <path class="cls-1" d="m1760.57,0C788.23,0,0,788.23,0,1760.57s788.23,1760.57,1760.57,1760.57,1760.57-788.23,1760.57-1760.57S2732.91,0,1760.57,0Zm0,3377.14c-892.81,0-1616.57-723.76-1616.57-1616.57S867.76,144,1760.57,144s1616.57,723.76,1616.57,1616.57-723.76,1616.57-1616.57,1616.57Z"/>
  <g>
    <circle class="cls-1" cx="1760.57" cy="1236.86" r="638.65"/>
    <path class="cls-1" d="m2882.65,2689.35c-111.94-378.4-462.14-654.5-876.84-654.5h-490.48c-414.7,0-764.9,276.1-876.84,654.5,267.17,322.41,670.64,527.79,1122.08,527.79s854.91-205.38,1122.08-527.79Z"/>
  </g>
</svg>